# xmcd
#
# Track frame offsets: 
#        150
#        17594
#        38150
#        55349
#        74947
#        93161
#        110593
#        134160
#        154058
#        170760
#
# Disc length: 2515 seconds
#
# Revision: 2
# Processed by: cddbd v1.5.2PL0 Copyright (c) Steve Scherf et al.
# Submitted via: ExactAudioCopyFreeDBPlugin 1.0
#
DISCID=9109d10a
DTITLE=Sister Sledge - 1983 - Bet Cha Say That To All The Girls
DYEAR=1983
DGENRE=R&B
TTITLE0=B.Y.O.B. (Bring Your Own Baby)
TTITLE1=Lifetime Lover
TTITLE2=Once In Your Life
TTITLE3=Shake Me Down
TTITLE4=Dream On
TTITLE5=Let Him Go
TTITLE6=Smile
TTITLE7=Bet Cha Say That To All The Girls
TTITLE8=Gotta Get Back To Love
TTITLE9=Thank You For The Party
EXTD=
EXTT0=
EXTT1=
EXTT2=
EXTT3=
EXTT4=
EXTT5=
EXTT6=
EXTT7=
EXTT8=
EXTT9=
PLAYORDER=
